<svg width="100" height="100" viewBox="0 0 100 100" fill="none" xmlns="http://www.w3.org/2000/svg">
<path d="M39.7012 10H60.3102C60.7255 10 61.0975 10.2566 61.245 10.6448L69.985 33.6448C70.2337 34.2992 69.7503 35 69.0502 35H50.2125C49.7861 35 49.4066 35.2704 49.2673 35.6735L30.7327 89.3265C30.5934 89.7296 30.2139 90 29.7875 90H11.4262C10.7326 90 10.2497 89.3112 10.486 88.6592L38.761 10.6592C38.9045 10.2635 39.2803 10 39.7012 10Z" fill="#F4F4F5"/>
<path d="M55.2576 43.6511L38.5023 88.6511C38.259 89.3045 38.7422 90 39.4394 90H56.2688C56.7043 90 57.0897 89.7182 57.2217 89.3032L63.0798 70.892C63.3723 69.9729 64.668 69.9596 64.9793 70.8725L71.2691 89.3227C71.4072 89.7277 71.7877 90 72.2156 90H89.0606C89.7578 90 90.241 89.3045 89.9977 88.6511L73.2424 43.6511C73.0967 43.2596 72.723 43 72.3053 43H56.1947C55.777 43 55.4033 43.2596 55.2576 43.6511Z" fill="#F4F4F5"/>
<path d="M39.7012 10H60.3102C60.7255 10 61.0975 10.2566 61.245 10.6448L69.985 33.6448C70.2337 34.2992 69.7503 35 69.0502 35H50.2125C49.7861 35 49.4066 35.2704 49.2673 35.6735L30.7327 89.3265C30.5934 89.7296 30.2139 90 29.7875 90H11.4262C10.7326 90 10.2497 89.3112 10.486 88.6592L38.761 10.6592C38.9045 10.2635 39.2803 10 39.7012 10Z" stroke="#F4F4F5"/>
<path d="M55.2576 43.6511L38.5023 88.6511C38.259 89.3045 38.7422 90 39.4394 90H56.2688C56.7043 90 57.0897 89.7182 57.2217 89.3032L63.0798 70.892C63.3723 69.9729 64.668 69.9596 64.9793 70.8725L71.2691 89.3227C71.4072 89.7277 71.7877 90 72.2156 90H89.0606C89.7578 90 90.241 89.3045 89.9977 88.6511L73.2424 43.6511C73.0967 43.2596 72.723 43 72.3053 43H56.1947C55.777 43 55.4033 43.2596 55.2576 43.6511Z" stroke="#F4F4F5"/>
</svg>
