<svg width="98" height="99" viewBox="0 0 98 99" fill="none" xmlns="http://www.w3.org/2000/svg">
<path d="M61.8573 77.8424C76.4304 76.2493 90.1725 68.6002 97.745 55.8316C94.1646 87.4046 59.0979 107.364 30.4857 95.105C27.8454 93.9734 25.5801 92.1105 24.0191 89.6957C17.587 79.7533 15.4719 67.0996 18.506 55.6165C27.1901 70.3695 44.8341 79.4177 61.8573 77.8424Z" fill="white"/>
<path d="M17.9764 46.3573C12.0662 59.7992 11.8069 75.5489 19.0568 88.5048C-6.44127 69.6123 -6.15866 29.2029 18.743 10.5021C21.0406 8.7774 23.7832 7.74392 26.6516 7.59564C38.4599 6.9847 50.454 11.4776 58.8621 19.8514C41.7688 20.0108 25.1273 30.7971 17.9764 46.3573Z" fill="white" fill-opacity="0.8"/>
<path d="M67.1035 23.9789C58.4817 12.1368 44.98 4.08413 30.1943 3.83886C58.7788 -8.93973 93.9311 11.7778 97.7641 42.3976C98.1201 45.245 97.6539 48.1358 96.3711 50.7C91.0283 61.376 81.1248 69.6605 69.5546 72.7275C78.0495 57.2454 76.9936 38.3284 67.1035 23.9789Z" fill="white" fill-opacity="0.9"/>
</svg>
