<svg width="99" height="99" viewBox="0 0 99 99" fill="none" xmlns="http://www.w3.org/2000/svg">
<path d="M49.5 75.537V91.9462C77.3128 91.9462 98.9257 65.0925 89.8301 35.9308C87.8423 29.6376 84.3681 23.9157 79.7014 19.249C75.0348 14.5823 69.3128 11.1081 63.0196 9.12033C33.9075 0.0247086 7.05371 21.681 7.05371 49.4505H23.463C23.463 32.0326 40.7385 18.5563 59.0782 25.1955C62.4465 26.4242 65.5054 28.3745 68.0406 30.9098C70.5759 33.445 72.5262 36.5039 73.755 39.8722C80.4375 58.1934 66.9487 75.4503 49.5495 75.4874V59.171H33.1835V75.537H49.5Z" fill="white"/>
<path d="M33.1836 88.1408H20.5734V75.5369H33.1836V88.1408ZM10.0361 75.5369H20.5734V64.9934H10.0361V75.5369Z" fill="white"/>
</svg>
