<svg width="100" height="100" viewBox="0 0 100 100" fill="none" xmlns="http://www.w3.org/2000/svg">
<path fill-rule="evenodd" clip-rule="evenodd" d="M89.965 39.5679C89.1898 15.8607 73.9232 0.215672 51.3637 1.03037C41.6774 1.47563 30.5936 5.18441 22.255 11.8157C21.4707 12.4409 21.2679 13.5872 21.7998 14.4587L25.3381 20.2753C25.942 21.27 27.2266 21.4737 28.1056 20.7348C34.4521 15.4107 43.1153 11.92 51.4493 11.5505C66.9097 10.9015 78.2683 20.8959 78.9311 40.2025C79.7605 62.6827 64.7959 88.3977 40.7488 89.7902C39.9104 89.8377 39.0361 89.8567 38.1615 89.8567C36.9355 89.8567 36.0297 88.6489 36.3361 87.3982C40.9742 68.4941 46.3877 48.2215 51.9092 29.3555C52.2923 28.0434 51.3186 26.7361 50.0161 26.8119L42.9844 27.2193C42.1957 27.2666 41.5195 27.8208 41.2897 28.6165C35.9845 47.1556 30.6748 67.2629 25.897 86.1289C25.622 87.2183 24.5267 87.8437 23.5081 87.4928C21.0155 86.6358 18.7393 85.66 16.8011 84.5183C15.8725 83.9689 14.6961 84.3576 14.2183 85.3614L11.1984 91.7371C10.7521 92.6799 11.0812 93.8354 11.9601 94.342C18.8068 98.2642 29.201 100.504 39.649 99.9032C74.0317 97.9133 90.8756 65.8463 89.965 39.5772V39.5679Z" fill="#F5F5F4"/>
</svg>
