<svg width="100" height="100" viewBox="0 0 100 100" fill="none" xmlns="http://www.w3.org/2000/svg">
<path d="M89.9323 49.601C88.1961 42.1276 84.406 35.2908 78.9914 29.865C73.1896 23.1818 60.3275 8.01174 55.2931 0.79697C54.9299 0.2765 54.4177 0.0184538 53.7882 0.000955734C48.3775 -0.14945 34.2995 17.4728 31.6674 38.9751C53.5019 44.7438 63.1975 68.8941 49.9066 85.1048C54.5372 89.107 60.1783 92.8777 66.9882 96.3073C70.1978 94.8431 73.221 92.963 75.9759 90.7024C81.9005 85.841 86.348 79.4141 88.8146 72.1499C91.2813 64.8857 91.6685 57.0744 89.9323 49.601Z" fill="white"/>
<path d="M15.8606 81.6672C20.1012 88.0564 26.0426 93.128 33.0118 96.3073C40.6198 93.5899 46.1711 89.661 49.9066 85.1048C33.5974 71.0088 29.8233 54.0397 31.6674 38.9751C26.5764 37.63 20.8255 37.2843 14.5521 38.2715C10.7043 44.9056 8.78744 52.4869 9.01871 60.1567C9.24997 67.8264 11.6201 75.2779 15.8606 81.6672Z" fill="white"/>
<path d="M31.6674 38.9751C29.8233 54.0397 33.5974 71.0088 49.9066 85.1048C63.1975 68.8941 53.5019 44.7438 31.6674 38.9751Z" fill="white" fill-opacity="0.7"/>
<path d="M33.0118 96.3073C39.9811 99.4867 47.6996 100.647 55.2931 99.6562C59.3555 99.1262 63.2953 97.992 66.9882 96.3073C60.1783 92.8777 54.5372 89.107 49.9066 85.1048C46.1711 89.661 40.6198 93.5899 33.0118 96.3073Z" fill="#BBBBBB"/>
</svg>
