<svg width="98" height="99" viewBox="0 0 98 99" fill="none" xmlns="http://www.w3.org/2000/svg">
<path d="M27.3272 33.8698C21.7763 33.8929 16.3676 35.6102 11.8229 38.7876C11.7256 38.8557 11.6286 38.9244 11.5321 38.9938C6.92813 42.3031 3.47081 46.9658 1.6416 52.3325C-0.168314 57.6959 -0.251793 63.4916 1.4029 68.9049C3.0576 74.3182 6.50071 79.0652 11 82.5L23.0334 70.3833C20.9661 69.4615 19.2556 67.8909 18.1611 65.9096C17.0666 63.9284 16.6477 61.6443 16.9679 59.4036C17.2881 57.1628 18.33 55.0875 19.9356 53.4921C21.5413 51.8967 23.6232 50.8681 25.8659 50.5622C28.1091 50.2404 30.3962 50.6535 32.3851 51.7396C34.374 52.8257 35.9579 54.5266 36.8998 56.5877L49.0667 44.4981C46.5034 41.1736 43.2078 38.4851 39.4362 36.6417C37.3248 35.6098 35.098 34.8582 32.8103 34.4001C31.0115 34.0398 29.175 33.861 27.3272 33.8698Z" fill="white"/>
<path d="M27.3272 88.1186H48.307V71.4197H27.3208C25.8273 71.4197 24.3917 70.9948 23.0334 70.3833L11 82.5C15.7328 86.1054 21.3712 88.083 27.3208 88.1121L27.3272 88.1186Z" fill="white" fill-opacity="0.9"/>
<path d="M73.3974 20.2897L61.6391 32.0286C64.0887 34.016 66.0276 36.5095 67.3583 39.3694C68.689 42.2293 69.3508 45.3548 69.2933 48.5086V50.588C75.087 50.588 79.7864 55.2551 79.7864 61.0167C79.7864 66.7654 75.087 71.439 69.2933 71.439L48.3264 71.4197L48.307 71.4197V88.1186L48.3264 88.125H69.2933C75.1369 88.1823 80.8443 86.36 85.5734 82.9267C90.3025 79.4935 93.8029 74.6312 95.5583 69.0571C97.2913 63.4909 97.1783 57.5136 95.2362 52.0168C93.2941 46.52 89.627 41.7984 84.7819 38.5563H84.7884C82.8548 31.4864 78.8952 25.1368 73.3974 20.2897Z" fill="white" fill-opacity="0.75"/>
<path d="M56.426 11.7542C50.1397 10.3847 43.6093 10.6247 37.4405 12.4522C31.2956 14.3084 25.7224 17.6944 21.2434 22.2927C16.7644 26.8911 13.5169 32.596 11.8229 38.7876C16.3676 35.6102 21.7763 33.8929 27.3272 33.8698C29.175 33.861 31.0115 34.0398 32.8103 34.4001C40.2778 26.2502 53.0193 25.089 61.6391 32.0286L73.3974 20.2897L73.394 20.2866L73.1001 20.0275C72.4789 19.4972 71.8419 18.9878 71.1903 18.5C66.8177 15.2265 61.7845 12.9217 56.426 11.7542Z" fill="white" fill-opacity="0.6"/>
</svg>
