<svg width="100" height="100" viewBox="0 0 100 100" fill="none" xmlns="http://www.w3.org/2000/svg">
<g clip-path="url(#clip0_1684_408)">
<path d="M52.0833 3.125C25.6083 3.125 4.16663 24.5667 4.16663 51.0417C4.16663 72.2458 17.8833 90.1542 36.9291 96.5C39.325 96.9208 40.2208 95.4833 40.2208 94.225C40.2208 93.0875 40.1625 89.3167 40.1625 85.3C28.125 87.5167 25.0125 82.3667 24.0541 79.675C23.5125 78.2958 21.1791 74.0417 19.1375 72.9042C17.4625 72.0042 15.0666 69.7875 19.0791 69.7292C22.8541 69.6708 25.55 73.2042 26.45 74.6417C30.7625 81.8917 37.65 79.85 40.4041 78.5917C40.8208 75.4792 42.0791 73.3833 43.4583 72.1833C32.7958 70.9875 21.6583 66.8542 21.6583 48.525C21.6583 43.3167 23.5125 39.0042 26.5666 35.65C26.0875 34.45 24.4125 29.5375 27.0458 22.95C27.0458 22.95 31.0583 21.6917 40.225 27.8625C44.0583 26.7833 48.1291 26.2458 52.2041 26.2458C56.275 26.2458 60.35 26.7875 64.1833 27.8625C73.35 21.6333 77.3583 22.95 77.3583 22.95C79.9958 29.5375 78.3166 34.45 77.8375 35.65C80.8916 39.0042 82.75 43.2542 82.75 48.525C82.75 66.9125 71.55 70.9833 60.8875 72.1833C62.625 73.6833 64.1208 76.5583 64.1208 81.05C64.1208 87.4583 64.0625 92.6083 64.0625 94.225C64.0625 95.4833 64.9625 96.9833 67.3541 96.5042C86.2875 90.1542 100 72.1833 100 51.0417C100 24.5667 78.5583 3.125 52.0833 3.125Z" fill="#F4F4F5"/>
</g>
<defs>
<clipPath id="clip0_1684_408">
<rect width="100" height="100" fill="white"/>
</clipPath>
</defs>
</svg>
