<svg width="100" height="100" viewBox="0 0 100 100" fill="none" xmlns="http://www.w3.org/2000/svg">
<path fill-rule="evenodd" clip-rule="evenodd" d="M50 1L53.5149 4.36006C62.3731 12.8289 74.3221 18.0152 87.4816 18.0152C87.6913 18.0152 87.9004 18.014 88.109 18.0116L91.8571 17.9643L93.0282 21.5588C95.0029 27.6327 96.006 33.9831 96 40.373C96 68.4274 76.9917 91.9875 51.2741 98.6691L50 99L48.7259 98.6691C23.0088 91.9875 4 68.4274 4 40.373C4 33.8109 5.04204 27.4845 6.97179 21.5588L8.14283 17.9643L11.891 18.0116C12.0995 18.014 12.3092 18.0152 12.5183 18.0152C25.6779 18.0152 37.6269 12.8289 46.4857 4.36006L49.9994 1H50ZM15.6904 28.2505C14.7121 32.2162 14.2191 36.2872 14.2225 40.373C14.2225 63.1398 29.3388 82.3554 50 88.3267C70.6611 82.3554 85.7781 63.1398 85.7781 40.373C85.7781 36.1871 85.268 32.1267 84.3096 28.2505C71.345 27.5638 59.4714 22.6936 50 14.9588C40.5286 22.6936 28.6555 27.5638 15.6904 28.2505Z" fill="#F4F4F5"/>
</svg>
