<svg width="103" height="107" viewBox="0 0 103 107" fill="none" xmlns="http://www.w3.org/2000/svg">
<path fill-rule="evenodd" clip-rule="evenodd" d="M48.5039 62.9538H54.4925H79.4438C86.0585 62.9538 91.4206 57.7965 91.4206 51.4341C91.4206 45.072 86.0585 39.9145 79.4438 39.9145C86.0585 39.9145 91.4206 34.7569 91.4206 28.3947C91.4206 22.0326 86.0585 16.875 79.4438 16.875H23.5524C16.9378 16.875 11.5757 22.0326 11.5757 28.3947C11.5757 34.7569 16.9378 39.9145 23.5524 39.9145C16.9378 39.9145 11.5757 45.072 11.5757 51.4341C11.5757 57.7965 16.9378 62.9538 23.5524 62.9538H48.5039ZM55.4903 25.5148C53.8367 25.5148 52.496 26.8042 52.496 28.3947C52.496 29.9853 53.8367 31.2747 55.4903 31.2747H79.4438C81.0974 31.2747 82.4381 29.9853 82.4381 28.3947C82.4381 26.8042 81.0974 25.5148 79.4438 25.5148H55.4903ZM55.4903 48.5544C53.8367 48.5544 52.496 49.8436 52.496 51.4341C52.496 53.0246 53.8367 54.3142 55.4903 54.3142H79.4438C81.0974 54.3142 82.4381 53.0246 82.4381 51.4341C82.4381 49.8436 81.0974 48.5544 79.4438 48.5544H55.4903ZM31.5369 28.3947C31.5369 30.5155 29.7495 32.2347 27.5447 32.2347C25.3398 32.2347 23.5524 30.5155 23.5524 28.3947C23.5524 26.274 25.3398 24.5548 27.5447 24.5548C29.7495 24.5548 31.5369 26.274 31.5369 28.3947ZM31.5369 51.4341C31.5369 53.555 29.7495 55.2743 27.5447 55.2743C25.3398 55.2743 23.5524 53.555 23.5524 51.4341C23.5524 49.3136 25.3398 47.5943 27.5447 47.5943C29.7495 47.5943 31.5369 49.3136 31.5369 51.4341Z" fill="white"/>
<path opacity="0.6" d="M94.4168 82.1556C94.4168 80.5651 93.0761 79.2754 91.4225 79.2754H58.9041C58.0939 77.3506 56.4957 75.8133 54.4945 75.034V62.9559H48.5059V75.034C46.5047 75.8133 44.9064 77.3506 44.0962 79.2754H11.5777C9.92404 79.2754 8.5835 80.5651 8.5835 82.1556C8.5835 83.7461 9.92404 85.0353 11.5777 85.0353H44.0962C45.2807 87.8497 48.1492 89.8355 51.5002 89.8355C54.8511 89.8355 57.7196 87.8497 58.9041 85.0353H91.4225C93.0761 85.0353 94.4168 83.7461 94.4168 82.1556Z" fill="white"/>
</svg>
