<svg width="1024" height="1024" viewBox="0 0 1024 1024" fill="none" xmlns="http://www.w3.org/2000/svg">
<mask id="path-1-outside-1_1721_243" maskUnits="userSpaceOnUse" x="219" y="135" width="587" height="752" fill="black">
<rect fill="white" x="219" y="135" width="587" height="752"/>
<path d="M220.594 886V136H258.484L720.594 552.406V136H804.188V886H765.906L304.187 469.594V886H220.594Z"/>
</mask>
<path d="M220.594 886V136H258.484L720.594 552.406V136H804.188V886H765.906L304.187 469.594V886H220.594Z" fill="#FAFAFA"/>
<path d="M220.594 886H219.594V887H220.594V886ZM220.594 136V135H219.594V136H220.594ZM258.484 136L259.154 135.257L258.868 135H258.484V136ZM720.594 552.406L719.924 553.149L721.594 554.653V552.406H720.594ZM720.594 136V135H719.594V136H720.594ZM804.188 136H805.188V135H804.188V136ZM804.188 886V887H805.188V886H804.188ZM765.906 886L765.237 886.743L765.522 887H765.906V886ZM304.187 469.594L304.857 468.851L303.187 467.345V469.594H304.187ZM304.187 886V887H305.187V886H304.187ZM221.594 886V136H219.594V886H221.594ZM220.594 137H258.484V135H220.594V137ZM257.815 136.743L719.924 553.149L721.263 551.663L259.154 135.257L257.815 136.743ZM721.594 552.406V136H719.594V552.406H721.594ZM720.594 137H804.188V135H720.594V137ZM803.188 136V886H805.188V136H803.188ZM804.188 885H765.906V887H804.188V885ZM766.576 885.257L304.857 468.851L303.518 470.336L765.237 886.743L766.576 885.257ZM303.187 469.594V886H305.187V469.594H303.187ZM304.187 885H220.594V887H304.187V885Z" fill="black" mask="url(#path-1-outside-1_1721_243)"/>
</svg>
