<svg width="100" height="100" viewBox="0 0 100 100" fill="none" xmlns="http://www.w3.org/2000/svg">
<path fill-rule="evenodd" clip-rule="evenodd" d="M73.9245 9.57546L8.76177 74.7382C5.79621 77.7038 5.62424 82.4562 8.36772 85.6283L13.8738 91.9948C16.913 95.5088 22.2964 95.7036 25.5816 92.4184L91.2606 26.7394C94.4168 23.5832 94.3797 18.4545 91.178 15.3443L85.1557 9.49408C82.019 6.44699 77.0168 6.48323 73.9245 9.57546ZM60.86 37.36C59.2856 35.7856 56.7287 35.7998 55.1719 37.3916L16.1834 77.2563C14.6837 78.7897 14.6603 81.2328 16.1302 82.7946L18.6269 85.4474C20.1914 87.1097 22.8275 87.1277 24.4147 85.4871L63.2645 45.3277C64.7826 43.7585 64.7619 41.2619 63.2181 39.7181L60.86 37.36ZM84.3991 24.4185C86.0794 22.837 86.0768 20.1657 84.3934 18.5876L82.2824 16.6085C80.7247 15.1482 78.2948 15.1687 76.762 16.655L65.9161 27.1722C64.3129 28.7269 64.2932 31.2932 65.8723 32.8723L67.756 34.756C69.2847 36.2847 71.7515 36.3221 73.3259 34.8404L84.3991 24.4185Z" fill="#F4F4F5"/>
<path d="M73.9245 9.57546L8.76177 74.7382M73.9245 9.57546C77.0168 6.48323 82.019 6.44699 85.1557 9.49408M73.9245 9.57546V9.57546C77.0168 6.48324 82.019 6.44699 85.1557 9.49408V9.49408M8.76177 74.7382C5.79621 77.7038 5.62424 82.4562 8.36772 85.6283M8.76177 74.7382V74.7382C5.79621 77.7038 5.62424 82.4562 8.36772 85.6283V85.6283M8.36772 85.6283L13.8738 91.9948M13.8738 91.9948C16.913 95.5088 22.2964 95.7036 25.5816 92.4184M13.8738 91.9948V91.9948C16.913 95.5088 22.2964 95.7036 25.5816 92.4184V92.4184M25.5816 92.4184L91.2606 26.7394M91.2606 26.7394C94.4168 23.5832 94.3797 18.4545 91.178 15.3443M91.2606 26.7394V26.7394C94.4168 23.5832 94.3797 18.4545 91.178 15.3443V15.3443M91.178 15.3443L85.1557 9.49408M63.2645 45.3277L24.4147 85.4871C22.8275 87.1277 20.1914 87.1097 18.6269 85.4474L16.1302 82.7946C14.6603 81.2328 14.6837 78.7897 16.1834 77.2563L55.1719 37.3916C56.7287 35.7998 59.2856 35.7856 60.86 37.36L63.2181 39.7181C64.7619 41.2619 64.7826 43.7585 63.2645 45.3277ZM65.8723 32.8723L67.756 34.756C69.2847 36.2847 71.7515 36.3221 73.3259 34.8404L84.3991 24.4185C86.0794 22.837 86.0768 20.1657 84.3934 18.5876L82.2824 16.6085C80.7247 15.1482 78.2948 15.1687 76.762 16.655L65.9161 27.1722C64.3129 28.7269 64.2932 31.2932 65.8723 32.8723Z" stroke="#F4F4F5"/>
</svg>
