<svg width="100" height="100" viewBox="0 0 100 100" fill="none" xmlns="http://www.w3.org/2000/svg">
<path d="M60.1929 5H68.3101V63.5824C68.4036 69.2469 66.9333 74.8282 64.0597 79.7168C61.2283 84.4548 57.1438 88.326 52.2529 90.9068C46.8249 93.7222 40.7715 95.127 34.6536 94.991C28.5459 95.1205 22.5045 93.7093 17.0911 90.8885C12.1943 88.305 8.10096 84.4351 5.25485 79.6984C2.37886 74.8175 0.908237 69.2414 1.00443 63.5824V5H9.12156V63.0199C9.04357 67.4087 10.136 71.7395 12.2872 75.5701C14.3858 79.2307 17.4729 82.2313 21.1976 84.231C25.3419 86.4094 29.9766 87.4952 34.6609 87.3851C39.3522 87.4934 43.9936 86.4079 48.1464 84.231C51.8729 82.2413 54.9592 79.2428 57.0494 75.5812C59.1869 71.746 60.2712 67.417 60.1929 63.031V5ZM100 5V93.4801H91.8829V5H100Z" fill="#F5F5F4"/>
</svg>
