<svg width="99" height="99" viewBox="0 0 99 99" fill="none" xmlns="http://www.w3.org/2000/svg">
<path fill-rule="evenodd" clip-rule="evenodd" d="M90.555 71.0811C82.9499 83.1889 72.6993 90.5067 60.4893 90.5067C42.8637 90.5067 36.5594 74.9368 35.642 62.2013C29.1096 70.8906 21.7654 79.9059 12.7563 89.9616C11.7961 90.9152 10.9732 91.4603 10.013 91.4603C6.8582 91.4603 0.411492 77.5622 0 72.3849C3.6587 66.7449 33.5421 34.7087 45.9972 20.9118C37.5833 23.4338 28.9083 28.4638 17.9685 36.2771C16.0482 37.64 10.6988 25.2407 10.836 15.7028C23.4551 6.43757 42.6582 0.578613 58.1576 0.578613C79.8297 0.578613 92.3116 12.569 92.3116 29.1921C92.3116 43.0899 80.6527 58.3505 63.6443 58.8956C54.8005 59.1239 49.1325 54.1922 46.2334 48.1025C46.5798 57.521 51.5092 69.1148 64.7414 69.1148C80.1038 69.1148 95.5 44.5 97.5 45.5C99.5 46.5 98.1602 58.9732 90.555 71.0811ZM51.3949 39.8054C55.7386 33.272 60.0384 26.5721 64.6581 19.4C72.8038 20.7695 75.8517 25.2672 75.8517 30.1458C75.8517 38.1847 67.8964 42.1363 60.6267 42.1363C56.7407 42.1363 53.7556 41.1224 51.3949 39.8054Z" fill="#D9D9D9"/>
</svg>
