<svg width="98" height="99" viewBox="0 0 98 99" fill="none" xmlns="http://www.w3.org/2000/svg">
<g clip-path="url(#clip0_1957_356)">
<path d="M57.1405 25H80.005C89.2765 25 96.7925 32.516 96.7925 41.7874V63.5932H87.4013V41.7874C87.4013 41.564 87.3925 41.3422 87.3754 41.1224L64.5106 63.5896C64.5877 63.592 64.6652 63.5932 64.7427 63.5932H87.4013V72.4629H64.7427C55.4713 72.4629 47.749 64.8734 47.749 55.6019V33.8542H57.1405V55.6019C57.1405 56.0207 57.1729 56.4345 57.2357 56.8403L80.6036 33.8788C80.4065 33.8625 80.2071 33.8542 80.005 33.8542H57.1405V25Z" fill="white"/>
<path d="M34.0451 70.8294L1 33.8502H14.2944L33.6954 55.5609V33.8502H43.6084V67.179C43.6084 72.2092 37.397 74.5802 34.0451 70.8294Z" fill="white"/>
</g>
<defs>
<clipPath id="clip0_1957_356">
<rect width="96" height="48" fill="white" transform="translate(1 25)"/>
</clipPath>
</defs>
</svg>
