<svg width="2687" height="465" viewBox="0 0 2687 465" fill="none" xmlns="http://www.w3.org/2000/svg">
<g filter="url(#filter0_d_1684_431)">
<path d="M653 345.501C651.4 310.701 613.333 311.333 594.5 315.999C606.744 241.173 551.044 202.671 502 195.614M653 345.501C670 350.834 695 371.999 668 404.001M653 345.501C674.5 343.5 701 372.499 668 404.001M668 404.001C680.167 388.667 712.5 364.801 744.5 392.001C753 371.001 777.2 336.501 806 366.501M806 366.501C828.5 355 870.6 360.001 875 404.001C888.333 399.501 917.8 396.601 929 421.001C947.8 393.401 975.167 409.501 986.5 421.001C987.3 397.401 1011.83 396.167 1024 398.5C1018 366.501 982.333 367.5 972 378.5M806 366.501C832.578 325.907 797.306 265.684 750.5 270.735C749.333 278.656 743.4 297.999 729 311.999C732.706 306.44 741.067 290.828 745.591 271.499C754.493 233.462 748.535 181.032 663 162.499C635 156.433 577.5 176.001 572.5 223.499M848.5 271.499C871 265.998 936.5 302.5 905.5 372.5C911.041 361.202 915.207 356.414 917 346.999M502 195.614C478.947 192.297 457.364 195.928 445 206C317.8 86.4 195.5 222.001 218.5 285.5C158 224 87 330.5 150 359C93.5 337.5 96.5 377 93.5 404.5C51.9 399.7 33.1667 425.166 29 438.5L1103.5 434.5C1103.5 368.501 1039.83 382.667 1032 387C1012.5 356 979.167 362.667 972 372.5C966.207 348.17 935.941 341.166 917 346.999M502 195.614C517.2 147.305 577.667 156.743 606 167.501C612.167 154.167 631.4 129.501 659 137.501C678.833 112.834 769 108.499 762 167.501C785 140.46 894 158.499 856.5 268.499C876.19 268.499 927.668 290.998 917 346.999M1053.5 366.501C1067.5 338.499 1122.5 308.999 1160.5 366.501C1182.5 354.499 1222.5 366.501 1222.5 411.999C1222.5 377.541 1245.52 347.647 1273 344.224M1273 344.224C1288.18 342.333 1304.73 348.526 1319.5 366.501C1371.33 348.834 1470 329.202 1450 392.001C1464.25 382.504 1486.32 377.489 1509.22 378.894M1273 344.224C1255.5 257.499 1391.5 239.999 1420 309.499C1448.23 278.086 1511.28 296.999 1529.78 335.499M1529.78 335.499C1587.55 259.177 1723 262.499 1750.5 309.499M1529.78 335.499C1520.35 347.95 1513.21 362.403 1509.22 378.894M1750.5 309.499C1708.9 304.699 1703.17 347.166 1699 360.5M1750.5 309.499C1747.5 289.999 1776.5 261.999 1820 281C1773.5 256.499 1828 146 1888.5 207.5C1865.5 144.001 1987.8 8.39999 2115 128M1507.5 434.5C1504.36 413.903 1505.22 395.38 1509.22 378.894M2115 128C2127.36 117.928 2148.95 114.297 2172 117.614M2115 128C2078 145.499 2061.5 181 2068 219.5M2339.26 324.467C2364.2 293.323 2339.73 272.748 2323 267.501C2321.4 232.701 2283.33 233.333 2264.5 237.999C2276.74 163.173 2221.04 124.671 2172 117.614M2339.26 324.467C2338.85 324.976 2338.43 325.487 2338 326.001M2339.26 324.467C2338.82 324.986 2338.4 325.498 2338 326.001M2339.26 324.467C2340.57 322.924 2342.07 321.318 2343.74 319.704M2338 326.001C2340.2 323.899 2342.11 321.797 2343.74 319.704M2343.74 319.704C2358.59 305.315 2435.18 301.001 2455.18 348M2455.18 348C2446.75 370.795 2444.24 396.018 2450.5 422M2455.18 348C2487.83 259.81 2609.21 207.95 2654.5 289M2242.5 145.499C2247.5 98.0008 2330.41 92.4333 2358.41 98.5C2443.94 117.033 2449.9 199.962 2441 237.999M2172 117.614C2187.2 69.3045 2247.67 78.7429 2276 89.5007C2282.17 76.1674 2301.4 51.5007 2329 59.5007C2343.74 19.4998 2448 25.4978 2441 84.4995C2472.5 74.4315 2542.7 80.8363 2571.5 187C2601 191.5 2658.9 214.9 2654.5 272.5" stroke="url(#paint0_radial_1684_431)" stroke-width="3" shape-rendering="crispEdges"/>
</g>
<defs>
<filter id="filter0_d_1684_431" x="0.857275" y="0.360937" width="2685.48" height="463.746" filterUnits="userSpaceOnUse" color-interpolation-filters="sRGB">
<feFlood flood-opacity="0" result="BackgroundImageFix"/>
<feColorMatrix in="SourceAlpha" type="matrix" values="0 0 0 0 0 0 0 0 0 0 0 0 0 0 0 0 0 0 127 0" result="hardAlpha"/>
<feMorphology radius="1" operator="dilate" in="SourceAlpha" result="effect1_dropShadow_1684_431"/>
<feOffset dx="2" dy="-4"/>
<feGaussianBlur stdDeviation="13.55"/>
<feComposite in2="hardAlpha" operator="out"/>
<feColorMatrix type="matrix" values="0 0 0 0 0.943262 0 0 0 0 0.852481 0 0 0 0 0.795048 0 0 0 1 0"/>
<feBlend mode="normal" in2="BackgroundImageFix" result="effect1_dropShadow_1684_431"/>
<feBlend mode="normal" in="SourceGraphic" in2="effect1_dropShadow_1684_431" result="shape"/>
</filter>
<radialGradient id="paint0_radial_1684_431" cx="0" cy="0" r="1" gradientUnits="userSpaceOnUse" gradientTransform="translate(1341.87 236.23) rotate(-7.2628) scale(2125.69 327.498)">
<stop stop-color="white"/>
<stop offset="0.170809" stop-color="#E2D4C6"/>
<stop offset="0.41039" stop-color="#C5B9AC"/>
<stop offset="0.777788" stop-color="#FDBA74"/>
<stop offset="0.904049" stop-color="#C18B7C"/>
<stop offset="1" stop-color="#7F776E"/>
</radialGradient>
</defs>
</svg>
