<svg width="1550" height="1357" viewBox="0 0 1550 1357" fill="none" xmlns="http://www.w3.org/2000/svg">
<g filter="url(#filter0_d_1684_423)">
<path d="M833.001 371C785.376 361.015 734.235 346.382 700.077 414.211C679.822 408.457 636.467 406.392 625.081 444.165C597.649 438 540.149 493.501 575.814 548.242C565.596 547.396 508.001 576.5 508.001 624C486.866 627.65 469.219 654.6 464.142 691.501M833.001 371C826.484 404.438 824.836 444.1 833.001 467C801.001 466 734.701 477.8 725.501 533M833.001 371C842.846 320.479 898.13 245.83 992.001 228.5C1037.02 220.189 1073.74 221.422 1103.41 228.5M438.649 934.001C442.424 918.908 451.853 911.931 460.649 905.501C446.197 890.473 458.121 874.521 464.142 870.629C371.082 816.813 415.97 696.07 464.142 691.501M438.649 934.001C435.767 945.522 436.788 959.083 447.973 972.095C449.494 983.066 455.98 994.892 467.649 1003M438.649 934.001C420.424 935.518 386.218 945.686 378.746 972.676C346.056 951.621 261.501 980.5 252.076 1041.5M255.001 1086.5C251.425 1076.5 249.825 1051.88 252.076 1041.5M533.116 817.321C464.142 831.501 449.909 951.001 518.884 989.937M393.5 1069C373 1062.5 354.448 1080.89 347.742 1097C341.037 1113.11 341.182 1133.22 352.471 1155.95M477.28 756.398C469.069 751.17 459.215 722.978 464.142 691.501M885.649 1357H82.5963C56.503 1334.66 -25.1722 1259.25 23 1143.5C70.1621 1030.17 188.001 1024.5 252.076 1041.5M672.501 787.501C625.081 669.501 734.427 548.763 851.001 548.242C880.689 548.11 896.368 550.162 924.501 560M1213 332C1206.84 298.92 1176.55 245.949 1103.41 228.5M1103.41 228.5C1082 174 1082.5 60.9664 1206.5 15.9996C1297.5 -17.0001 1402 29.0007 1433 95.4996M851.001 888.5C851.001 784 1077 725.641 1177 905.501M1023.5 644C1006.15 602.256 964.371 573.942 924.501 560M924.501 560C921.501 540.5 951.5 508.999 995 528C948.5 503.499 982.835 406.5 1056.34 436.5M1056.34 436.5C1051.72 452.094 1051.57 466.962 1057 479M1056.34 436.5C1077.22 365.946 1189.51 280.517 1290 375M1290 375C1302.36 364.927 1323.95 361.296 1347 364.613M1290 375C1253 392.499 1236.5 427.999 1243 466.5M1149 787.499C1111.5 677.499 1220.5 659.46 1243.5 686.501C1236.5 627.499 1326.67 631.834 1346.5 656.501C1374.1 648.501 1393.33 673.168 1399.5 686.501C1427.83 675.743 1488.3 666.305 1503.5 714.614M1420 746.5C1415 699.002 1341.5 692.433 1313.5 698.5C1227.97 717.033 1243.5 776 1259.91 790.499M1373.5 228.5C1346.5 189.5 1393.6 50.6994 1542 95.4996" stroke="url(#paint0_linear_1684_423)"/>
</g>
<defs>
<filter id="filter0_d_1684_423" x="0.685449" y="0.654687" width="1548.36" height="1366.75" filterUnits="userSpaceOnUse" color-interpolation-filters="sRGB">
<feFlood flood-opacity="0" result="BackgroundImageFix"/>
<feColorMatrix in="SourceAlpha" type="matrix" values="0 0 0 0 0 0 0 0 0 0 0 0 0 0 0 0 0 0 127 0" result="hardAlpha"/>
<feOffset dy="3"/>
<feGaussianBlur stdDeviation="3.45"/>
<feComposite in2="hardAlpha" operator="out"/>
<feColorMatrix type="matrix" values="0 0 0 0 0.992157 0 0 0 0 0.729412 0 0 0 0 0.454902 0 0 0 1 0"/>
<feBlend mode="normal" in2="BackgroundImageFix" result="effect1_dropShadow_1684_423"/>
<feBlend mode="normal" in="SourceGraphic" in2="effect1_dropShadow_1684_423" result="shape"/>
</filter>
<linearGradient id="paint0_linear_1684_423" x1="95.0003" y1="955" x2="1542" y2="751.5" gradientUnits="userSpaceOnUse">
<stop stop-color="white"/>
<stop offset="0.289147" stop-color="#EEAA86"/>
<stop offset="0.574493" stop-color="#EC8977"/>
<stop offset="0.715624" stop-color="#584BBC"/>
<stop offset="0.84044" stop-color="#284493"/>
<stop offset="1"/>
</linearGradient>
</defs>
</svg>
